<svg xmlns="http://www.w3.org/2000/svg" xmlns:xlink="http://www.w3.org/1999/xlink" viewBox="0 0 1500 1500"><defs><style>.cls-1{fill:url(#linear-gradient);}.cls-2{fill:url(#linear-gradient-2);}.cls-3{fill:url(#linear-gradient-3);}.cls-4{fill:url(#linear-gradient-4);}.cls-5{fill:url(#linear-gradient-5);}.cls-6{fill:url(#linear-gradient-6);}.cls-7{fill:#301712;}.cls-8{fill:#070300;opacity:0.65;}.cls-9{fill:url(#linear-gradient-7);}.cls-10{fill:url(#linear-gradient-8);}.cls-11{fill:url(#linear-gradient-9);}.cls-12{fill:url(#linear-gradient-10);}.cls-13{fill:url(#linear-gradient-11);}.cls-14{fill:url(#linear-gradient-12);}.cls-15{fill:url(#linear-gradient-13);}.cls-16{fill:url(#linear-gradient-14);}.cls-17,.cls-25,.cls-28{fill:#ffb500;}.cls-17,.cls-28{stroke:#000;stroke-miterlimit:10;}.cls-18{fill:url(#linear-gradient-15);}.cls-19{fill:url(#linear-gradient-16);}.cls-20{fill:url(#linear-gradient-17);}.cls-21{fill:url(#linear-gradient-18);}.cls-22{fill:url(#linear-gradient-19);}.cls-23{fill:url(#linear-gradient-20);}.cls-24,.cls-26{opacity:0.4;}.cls-26,.cls-29{fill:#fff;}.cls-27{font-size:74.29px;font-family:NeuropoliticalRg-Regular, Neuropolitical;}.cls-28{font-size:270.66px;font-family:MoolBoran;}.cls-30{opacity:0.79;fill:url(#Degradado_sin_nombre_38);}.cls-31{fill:url(#linear-gradient-21);}.cls-32{fill:url(#linear-gradient-22);}.cls-33{fill:url(#linear-gradient-23);}.cls-34{fill:url(#linear-gradient-24);}.cls-35{fill:url(#linear-gradient-25);}.cls-36{fill:url(#linear-gradient-26);}</style><linearGradient id="linear-gradient" x1="750" y1="40.83" x2="750" y2="1081.47" gradientUnits="userSpaceOnUse"><stop offset="0" stop-color="#ffcd16"/><stop offset="0.67" stop-color="#f17022"/><stop offset="0.7" stop-color="#c87842"/><stop offset="0.72" stop-color="#9a8267"/><stop offset="0.75" stop-color="#708b88"/><stop offset="0.78" stop-color="#4e92a3"/><stop offset="0.82" stop-color="#3198ba"/><stop offset="0.85" stop-color="#1b9ccb"/><stop offset="0.89" stop-color="#0ca0d8"/><stop offset="0.94" stop-color="#03a1df"/><stop offset="1" stop-color="#00a2e1"/></linearGradient><linearGradient id="linear-gradient-2" x1="751.03" y1="720.4" x2="751.03" y2="270.26" gradientUnits="userSpaceOnUse"><stop offset="0.45" stop-color="#d36b00" stop-opacity="0.8"/><stop offset="0.59" stop-color="#a25200" stop-opacity="0.85"/><stop offset="0.9" stop-color="#281400" stop-opacity="0.97"/><stop offset="0.97" stop-color="#0d0600"/></linearGradient><linearGradient id="linear-gradient-3" x1="754.4" y1="503.06" x2="754.4" y2="1326.58" gradientUnits="userSpaceOnUse"><stop offset="0" stop-color="#301712"/><stop offset="0.34" stop-color="#2a130f"/><stop offset="0.8" stop-color="#190705"/><stop offset="1" stop-color="#0f0000"/></linearGradient><linearGradient id="linear-gradient-4" x1="179.06" y1="1167.82" x2="179.06" y2="1500" xlink:href="#linear-gradient-3"/><linearGradient id="linear-gradient-5" x1="1320.94" y1="1167.82" x2="1320.94" y2="1500" xlink:href="#linear-gradient-3"/><linearGradient id="linear-gradient-6" x1="750" y1="1041.43" x2="750" y2="1370.84" xlink:href="#linear-gradient-3"/><linearGradient id="linear-gradient-7" x1="568.39" y1="527.14" x2="955.65" y2="527.14" gradientUnits="userSpaceOnUse"><stop offset="0.19"/><stop offset="0.79"/><stop offset="1" stop-color="#ff3800"/></linearGradient><linearGradient id="linear-gradient-8" x1="897.8" y1="356.03" x2="949.57" y2="356.03" gradientUnits="userSpaceOnUse"><stop offset="0"/><stop offset="1" stop-color="#ff3800"/></linearGradient><linearGradient id="linear-gradient-9" x1="613.42" y1="560.06" x2="679.87" y2="560.06" gradientUnits="userSpaceOnUse"><stop offset="0.02" stop-color="#ffce00"/><stop offset="0.22" stop-color="#ffb500"/><stop offset="0.5" stop-color="#8b6300"/><stop offset="0.75" stop-color="#271c00"/><stop offset="0.86"/></linearGradient><linearGradient id="linear-gradient-10" x1="599.51" y1="584.4" x2="665.96" y2="584.4" xlink:href="#linear-gradient-9"/><linearGradient id="linear-gradient-11" x1="613.42" y1="490.36" x2="672.14" y2="490.36" xlink:href="#linear-gradient-9"/><linearGradient id="linear-gradient-12" x1="599.51" y1="463.01" x2="665.96" y2="463.01" xlink:href="#linear-gradient-9"/><linearGradient id="linear-gradient-13" x1="627.32" y1="513.67" x2="672.14" y2="513.67" xlink:href="#linear-gradient-9"/><linearGradient id="linear-gradient-14" x1="627.32" y1="533.52" x2="672.14" y2="533.52" xlink:href="#linear-gradient-9"/><linearGradient id="linear-gradient-15" x1="861.14" y1="546.31" x2="961.59" y2="546.31" gradientUnits="userSpaceOnUse"><stop offset="0.02" stop-color="#ffce00"/><stop offset="0.27" stop-color="#ffb500"/><stop offset="0.44" stop-color="#ffb200"/><stop offset="0.56" stop-color="#ffa800"/><stop offset="0.68" stop-color="#ff9800"/><stop offset="0.78" stop-color="#ff8100"/><stop offset="0.89" stop-color="#ff6300"/><stop offset="0.98" stop-color="#ff4000"/><stop offset="1" stop-color="#ff3800"/></linearGradient><linearGradient id="linear-gradient-16" x1="932.46" y1="573.3" x2="985.48" y2="573.3" xlink:href="#linear-gradient-15"/><linearGradient id="linear-gradient-17" x1="935.14" y1="617.7" x2="935.23" y2="617.7" xlink:href="#linear-gradient-15"/><linearGradient id="linear-gradient-18" x1="879.22" y1="509.61" x2="879.65" y2="509.61" xlink:href="#linear-gradient-15"/><linearGradient id="linear-gradient-19" x1="916.13" y1="431.05" x2="924.83" y2="611.26" gradientUnits="userSpaceOnUse"><stop offset="0" stop-color="#ffb300"/><stop offset="0.36" stop-color="#fc6c00"/><stop offset="0.89" stop-color="#f80500"/></linearGradient><linearGradient id="linear-gradient-20" x1="931.4" y1="504" x2="933.24" y2="641.95" gradientUnits="userSpaceOnUse"><stop offset="0.02" stop-color="#ffce00"/><stop offset="0.35" stop-color="#ffb500"/><stop offset="0.38" stop-color="#ffb000"/><stop offset="0.81" stop-color="#ff5a00"/><stop offset="1" stop-color="#ff3800"/></linearGradient><linearGradient id="Degradado_sin_nombre_38" x1="611.34" y1="-51.8" x2="650.54" y2="138.15" gradientUnits="userSpaceOnUse"><stop offset="0" stop-color="#fff"/><stop offset="1" stop-color="#f4dfcc" stop-opacity="0"/></linearGradient><linearGradient id="linear-gradient-21" x1="236.93" y1="520.5" x2="236.93" y2="652.17" xlink:href="#linear-gradient-3"/><linearGradient id="linear-gradient-22" x1="314.08" y1="533.1" x2="314.08" y2="630.6" xlink:href="#linear-gradient-3"/><linearGradient id="linear-gradient-23" x1="157.37" y1="511.54" x2="157.37" y2="668.01" xlink:href="#linear-gradient-3"/><linearGradient id="linear-gradient-24" x1="2962.74" y1="500.3" x2="2962.74" y2="631.96" gradientTransform="matrix(-1.01, 0, 0, 1, 4258.65, 0)" xlink:href="#linear-gradient-3"/><linearGradient id="linear-gradient-25" x1="3039.89" y1="512.9" x2="3039.89" y2="610.4" gradientTransform="matrix(-1.01, 0, 0, 1, 4258.65, 0)" xlink:href="#linear-gradient-3"/><linearGradient id="linear-gradient-26" x1="2883.18" y1="491.34" x2="2883.18" y2="647.8" gradientTransform="matrix(-1.01, 0, 0, 1, 4258.65, 0)" xlink:href="#linear-gradient-3"/></defs><title>Asset 3</title><g id="Layer_2" data-name="Layer 2"><g id="Layer_1-2" data-name="Layer 1"><ellipse class="cls-1" cx="750" cy="649.26" rx="646.48" ry="649.26"/><path class="cls-2" d="M108.88,658.92c4.14,4,620,65.27,624.11,61.3l660.18-82.51L1385.4,529c-9.69-2.16-8.07-50.05-12.47-54-38.85-34.59-200.48-185.11-228.86-180-39.31,7-147.4,151.67-178.66,194.52a10.87,10.87,0,0,1-17.28.09C914.87,445,795.19,288.09,745.47,270.87c-37.4-13-275.6,186.9-323.11,227.21a10.91,10.91,0,0,1-15.19-1.14C383.74,469.66,306.59,381.45,260.22,347.5a10.94,10.94,0,0,0-13,.12l-89.89,67.84c-4.94,3.73-40,75.62-35.57,79.87Z"/><path class="cls-3" d="M750,1298.52c214.68,0,404.8-105.18,522.38-266.93,0,0-57.81-78.83-368.46-78.83-355.42,0-667.5,90.66-667.5,90.66C354.56,1198.45,540.6,1298.52,750,1298.52Z"/><path class="cls-4" d="M358.13,1435.68A2409.28,2409.28,0,0,0,75.41,1500q9.59-73.47,22.51-147.11Q50.48,1295.29,0,1239.33a2677.9,2677.9,0,0,1,314.32-71.51q-54.51,100.58-99.3,203Q288.62,1401.13,358.13,1435.68Z"/><path class="cls-5" d="M1141.88,1435.68A2409.58,2409.58,0,0,1,1424.59,1500q-9.58-73.47-22.51-147.11,47.45-57.6,97.92-113.56a2677.9,2677.9,0,0,0-314.32-71.51q54.51,100.58,99.3,203Q1211.38,1401.13,1141.88,1435.68Z"/><path class="cls-6" d="M1285,1370.84a2497.64,2497.64,0,0,0-1070,0q-28.83-132.6-57.65-265.2a2766.75,2766.75,0,0,1,1185.26,0Q1313.8,1238.24,1285,1370.84Z"/><rect class="cls-7" x="395.95" y="1393.02" width="183.54" height="7.97"/><rect class="cls-7" x="920.51" y="1393.02" width="183.54" height="7.97"/><polygon class="cls-8" points="532.6 380.8 564.57 464.03 516.18 516.05 538.24 559.13 518.43 570.29 479.54 500.93 532.6 380.8"/><polygon class="cls-8" points="562.67 468.51 573.28 475.9 569.76 480.59 581.08 489.07 577.74 493.94 587.76 501.69 584.42 506.38 593.15 513.41 585.72 525.49 580.43 514.49 568.27 520.53 571.43 527.47 559.54 533.96 563.26 541.53 550.36 549.02 555.55 559.38 541.63 569.3 555.55 595.26 529.47 672.07 478.23 544.87 491.32 530.58 515.83 572 540.33 558.93 518.61 517.64 562.67 468.51"/><polygon class="cls-8" points="581.19 506.89 591.48 534.24 581.19 542.63 585.3 555.37 575.58 561.59 579.7 573.4 567.98 582.31 570.91 589.56 558 601.99 540.24 564.7 545.85 545.22 556.32 512.9 581.19 506.89"/><path class="cls-8" d="M559.73,499.65l17.47,3.53,5.75,4.66s2.62,5.47,2.84,6.33,1.74,5.5,1.74,5.5l-3.27,5-6.55,3.15-27.29,37.84v10.9c0,1.53-11.67,1.56-11.67,1.56V562.23l3.79-5.51-2.3-6.37V542.5s-.14-5.39,0-9-1.45-6.68,0-8.86S559.73,499.65,559.73,499.65Z"/><polygon class="cls-8" points="540.24 547.2 541.77 560.94 546.45 560.94 548.94 554.07 540.24 547.2"/><path class="cls-8" d="M548.94,611.8l8.29-23.64V569.24s-10.08-7.68-12.64-5.39-7.65,11-8.9,15.41S548.94,611.8,548.94,611.8Z"/><path class="cls-9" d="M933.34,335.39V239.55a11.14,11.14,0,0,0-3.07-7.67L864,162.19a11.17,11.17,0,0,0-8.09-3.47H664.18a11.17,11.17,0,0,0-6.49,2.08L576,219.06a11.13,11.13,0,0,0-3.75,13.51l89,204.22a11.05,11.05,0,0,1,.92,4.2L666,609a11.07,11.07,0,0,1-1.09,5.06L569.48,813.32a11.12,11.12,0,0,0,3.3,13.66l87.14,66.3a11.17,11.17,0,0,0,6.76,2.28H851.46a11.19,11.19,0,0,0,7.89-3.26l67.56-67.48a11.08,11.08,0,0,0,3.27-8l-1.44-98.45a11.21,11.21,0,0,1,1-4.84l24.83-53.64A11.14,11.14,0,0,0,944.48,644H895.33a11.14,11.14,0,0,0-10.08,15.91l25.87,54.6a11.45,11.45,0,0,1,.88,2.73c2.21,11.87,14.53,92.08-48.18,131.51a11.06,11.06,0,0,0-1.36,1c-6.5,5.65-68.37,55.4-171.73-1.28-109.38-60-13.9-213.72,3.87-232.24a245.65,245.65,0,0,1,25.67-23.2,11.1,11.1,0,0,0,2.62-14.61c-12.28-19.88-37.48-70.68-3.28-109.46a11.14,11.14,0,0,0-2-16.55c-22.08-15.31-68.21-56.15-74.06-133.23C635.88,217.36,734.77,175.7,751,174.15s113-16,159.77,75.3a10.94,10.94,0,0,1,1.14,4c1.36,14.28,8.63,96.86-4.07,107.08-11,8.86,11.42-8.66,21.22-16.33A11.14,11.14,0,0,0,933.34,335.39Z"/><rect class="cls-10" x="897.8" y="336.35" width="51.77" height="39.35" rx="15.15"/><polygon class="cls-11" points="679.87 566.9 613.42 566.9 621.14 553.21 679.87 553.21 679.87 566.9"/><polygon class="cls-12" points="665.96 592.63 599.51 592.63 607.24 576.16 665.96 576.16 665.96 592.63"/><polygon class="cls-13" points="613.42 483.16 619.08 497.56 672.14 497.56 672.14 483.16 613.42 483.16"/><polygon class="cls-14" points="665.96 454.01 599.51 454.01 607.24 472.02 665.96 472.02 665.96 454.01"/><polygon class="cls-15" points="669.56 508.71 627.32 508.71 632.73 518.63 672.14 518.63 669.56 508.71"/><polygon class="cls-16" points="669.56 538.8 627.32 538.8 632.73 528.25 672.14 528.25 669.56 538.8"/><polygon class="cls-17" points="533.89 392.61 563.46 469.59 518.71 517.71 539.11 557.55 520.78 567.87 484.82 503.72 533.89 392.61"/><polygon class="cls-17" points="561.7 473.74 571.52 480.57 568.26 484.91 578.73 492.75 575.64 497.25 584.91 504.42 581.83 508.76 589.89 515.26 583.02 526.43 578.13 516.26 566.88 521.85 569.8 528.27 558.81 534.27 562.25 541.27 550.32 548.2 555.12 557.78 542.24 566.96 555.12 590.97 531 662.01 483.61 544.36 495.71 531.14 518.38 569.46 541.04 557.37 520.95 519.18 561.7 473.74"/><polygon class="cls-17" points="578.84 509.23 588.35 534.53 578.84 542.29 582.64 554.07 573.65 559.82 577.45 570.75 566.61 578.99 569.32 585.7 557.39 597.19 540.96 562.7 546.14 544.68 555.83 514.79 578.84 509.23"/><path class="cls-18" d="M945.71,567.6c50.39-65.75-35.28-94.09-35.28-94.09,22,14.79,29.72,65.12-10.63,65.79-28.63.47-23.66-24.24-20.58-29.45-3.23,3.67-24.91,34.58-15.9,65.75s63.48,43.52,63.48,43.52C915.53,592,937.08,578.76,945.71,567.6Z"/><path class="cls-19" d="M968.32,529c4.46,6.68-4.7,34.65-18.09,47.38-24.83,23.67-17,35.67-15.06,41.26.3-.58,3.52-3.3,26.42-15.93C1011.09,574.46,968.32,529,968.32,529Z"/><path class="cls-20" d="M935.23,617.78a1,1,0,0,1-.06-.16C935.08,617.78,935.23,617.78,935.23,617.78Z"/><path class="cls-21" d="M879.22,509.85c.26-.31.43-.48.43-.48A1.12,1.12,0,0,0,879.22,509.85Z"/><path class="cls-22" d="M934,608.62c15.08-4.14,38-14.36,42.51-37.67S961.36,533.66,951.18,519c-8.21-11.82,1.37-22.86-.69-33.07a21.28,21.28,0,0,0-12.34-15.46c4.29,6.49,3.43,16.84-4.11,22.08,4.8-6.07,3.45-11.66.36-16.63-5.48-9.11-20.25-15.52-24-25.6-2.71-7.25.45-14.76,9.94-20.35-12.57,4.76-21.6,15.66-21.25,25.87.34,13.8,12.93,26.64,8.13,41-2.75,8-22.63,28.71-31.36,42-8.88,13.54-10.29,26-4.63,38.71,7.2,16.15,26,26.08,49.63,31Z"/><path class="cls-23" d="M936.65,618.22c10-3.54,20.39-8.76,26.46-14.62,11.4-11,12.24-28.93-3.67-36.74,7.21,4.59,5.82,14.82-1.7,16.79-6.85,1.8-10.27-4.41-7.42-9.45,3.42-6,9.69-11.46,9.69-18.34.57-6-4-12.38-9.12-15.59,2.6,10.54-5.69,18.34-13.1,22.47h-.57a25.3,25.3,0,0,0,10.25-13.3c5.62-16.74-8.54-37.14-25.63-43.1,8.34,6.4,5.13,17.42,2.28,24.76-7.4,17.42-29.19,27.29-30.69,49.76-1.2,18.1,19.15,33.33,36.75,37.36Z"/><g class="cls-24"><path class="cls-25" d="M835,164.27a240.24,240.24,0,0,1,26.86,14.34,246.1,246.1,0,0,1,25,17.49c4,3.19,7.85,6.53,11.56,10.05,1.89,1.73,3.68,3.57,5.48,5.39s3.51,3.74,5.16,5.71a110.09,110.09,0,0,1,9.29,12.35,85.13,85.13,0,0,1,7.15,13.81l.11.28,0,.32c.44,7.7.78,15.39,1.07,23.09s.5,15.4.66,23.11c.09,3.85.11,7.7.12,11.56s0,7.71-.06,11.56-.15,7.72-.38,11.57c-.11,1.93-.23,3.85-.43,5.78-.12,1-.22,1.92-.39,2.87a12.26,12.26,0,0,1-.72,2.8,11.78,11.78,0,0,0,.46-2.83c.08-1,.1-1.92.13-2.88,0-1.92,0-3.84,0-5.76q-.12-5.76-.38-11.52c-.34-7.69-.76-15.37-1.2-23.05l-2.75-46.07.13.6A83,83,0,0,0,915,231.75a106.39,106.39,0,0,0-8.89-12c-3.2-3.82-6.67-7.44-10.23-11s-7.3-6.88-11.15-10.12-7.75-6.42-11.78-9.44-8.11-6-12.28-8.85-8.37-5.64-12.67-8.32S839.39,166.76,835,164.27Z"/></g><path class="cls-25" d="M559,502.53l16.15,3.27,5.32,4.31s2.42,5.06,2.62,5.86,1.62,5.08,1.62,5.08l-3,4.58-6.06,2.91-25.24,35v10.09c0,1.41-10.79,1.43-10.79,1.43V560.41l3.5-5.09L541,549.43v-7.26s-.13-5,0-8.34-1.34-6.18,0-8.2S559,502.53,559,502.53Z"/><path class="cls-25" d="M582.22,526.43l3.8-6.18s-7.39-.15-6.78,0S582.22,526.43,582.22,526.43Z"/><path class="cls-26" d="M591.41,805s55.57,69,71.82,69.21"/><polygon class="cls-25" points="540.96 546.51 542.38 559.22 546.7 559.22 549.01 552.87 540.96 546.51"/><text class="cls-27" transform="translate(614.9 1419.32) scale(0.78 0.96)">TOUNA</text><text class="cls-28" transform="translate(339.39 1245.08) scale(0.53 0.96)">LENTERA <tspan class="cls-29" x="888.88" y="0">LIPUKU</tspan></text><path class="cls-30" d="M337.31,214.25s140.88,2.15,282.52-73.8C761.18,64.64,903.77,78.25,958.26,34.8a.2.2,0,0,0-.08-.35L829.56,4.87S748.69,38.8,670.67,87.38c-68.19,42.45-144.52,73-144.52,73s-3-62.75-34.17-64.49S463.47,123,463.47,123s20.31-75.17-29.35-40.39C389.76,113.72,318.19,146.13,337.31,214.25Z"/><path class="cls-25" d="M549,606.27l7.67-21.87V566.9s-9.33-7.1-11.7-5-7.07,10.14-8.23,14.25S549,606.27,549,606.27Z"/><path class="cls-31" d="M261.27,526.5A34,34,0,0,1,271.2,530c-8.31-13.82-21.33-11.56-28.69-6.66,1.19-1.9,2.3-3.39,2.3-3.39a14,14,0,0,0-4.4,3.43,76.37,76.37,0,0,1,2-8.15,20.37,20.37,0,0,0-5.64,9.63c-2.87-8.49-16-17-30.71-4,0,0,11-4.19,20.3,1.25-8.81-2-20,1.18-23.72,14.34,5.22-6.43,12.33-10.09,19.7-9.47-6.82,1.63-13.37,7.47-12.22,19.47,2.94-12.49,14.79-18.37,24.81-13.69-18.51,35.53-18.57,81.4-18.57,81.4h12.94c-6.51-32.94,7.34-76.24,8.75-80.53,10.69-1.65,15.72,5.11,13.24,18.22,8.9-11.52,5.66-18.64,0-21.48,7.86,1.18,13.62,7.1,15.92,16.08C270.34,536.29,267,529.68,261.27,526.5Z"/><path class="cls-32" d="M331.36,537.54a23.54,23.54,0,0,1,7.05,2.6c-5.9-10.23-15.15-8.56-20.37-4.93.85-1.41,1.63-2.51,1.63-2.51a10.09,10.09,0,0,0-3.12,2.54,58.26,58.26,0,0,1,1.44-6,15.24,15.24,0,0,0-4,7.13c-2-6.28-11.34-12.61-21.81-3,0,0,7.79-3.11,14.42.93-6.26-1.46-14.23.86-16.84,10.61,3.7-4.76,8.75-7.47,14-7-4.84,1.21-9.49,5.53-8.67,14.41,2.08-9.24,10.5-13.6,17.61-10.13-13.14,26.31-13.18,60.27-13.18,60.27h9.18c-4.61-24.38,5.21-56.45,6.22-59.63,7.59-1.22,11.16,3.79,9.4,13.49,6.32-8.52,4-13.8,0-15.9,5.58.87,9.67,5.25,11.3,11.9C337.8,544.8,335.39,539.9,331.36,537.54Z"/><path class="cls-33" d="M181.7,518.67a30.93,30.93,0,0,1,9.93,4.17c-8.31-16.42-21.33-13.73-28.68-7.91,1.19-2.26,2.29-4,2.29-4a15,15,0,0,0-4.4,4.08c.78-5,2-9.69,2-9.69-3.12,3.3-4.77,7.81-5.65,11.44-2.86-10.09-16-20.24-30.71-4.76,0,0,11-5,20.31,1.49-8.82-2.33-20,1.39-23.72,17,5.21-7.65,12.32-12,19.7-11.26-6.83,1.94-13.38,8.88-12.22,23.13,2.93-14.84,14.79-21.82,24.81-16.26-18.51,42.22-18.58,96.73-18.58,96.73h12.94c-6.5-39.14,7.34-90.6,8.76-95.69,10.68-2,15.71,6.06,13.24,21.64,8.89-13.68,5.66-22.15,0-25.52,7.85,1.41,13.61,8.43,15.91,19.1C190.77,530.31,187.38,522.45,181.7,518.67Z"/><path class="cls-34" d="M1236.39,506.29a34.91,34.91,0,0,0-10,3.52c8.4-13.82,21.58-11.56,29-6.66-1.21-1.91-2.32-3.4-2.32-3.4a14.38,14.38,0,0,1,4.45,3.44,75.05,75.05,0,0,0-2.06-8.15,20.29,20.29,0,0,1,5.71,9.63c2.9-8.5,16.16-17,31.07-4,0,0-11.09-4.19-20.54,1.25,8.92-2,20.27,1.17,24,14.34-5.28-6.43-12.47-10.09-19.93-9.47,6.9,1.63,13.53,7.47,12.36,19.46-3-12.49-15-18.36-25.1-13.69,18.73,35.53,18.79,81.4,18.79,81.4h-13.09c6.58-32.93-7.43-76.23-8.86-80.52-10.81-1.65-15.9,5.1-13.4,18.21-9-11.51-5.72-18.63,0-21.47-8,1.18-13.78,7.09-16.11,16.07C1227.22,516.09,1230.65,509.47,1236.39,506.29Z"/><path class="cls-35" d="M1165.48,517.34a24.06,24.06,0,0,0-7.14,2.6c6-10.24,15.33-8.56,20.61-4.93-.86-1.41-1.65-2.52-1.65-2.52a10.31,10.31,0,0,1,3.16,2.55,58.3,58.3,0,0,0-1.46-6,15.28,15.28,0,0,1,4,7.13c2.06-6.29,11.47-12.61,22.06-3,0,0-7.87-3.1-14.58.93,6.33-1.45,14.39.87,17,10.62-3.75-4.76-8.86-7.47-14.15-7,4.9,1.21,9.6,5.54,8.78,14.42-2.11-9.25-10.63-13.6-17.83-10.14,13.3,26.31,13.34,60.28,13.34,60.28h-9.29c4.67-24.39-5.27-56.45-6.29-59.63-7.68-1.22-11.29,3.78-9.51,13.49-6.39-8.53-4.07-13.8,0-15.9-5.65.87-9.78,5.25-11.44,11.9C1159,524.59,1161.4,519.69,1165.48,517.34Z"/><path class="cls-36" d="M1316.9,498.46a31.64,31.64,0,0,0-10.05,4.18c8.4-16.43,21.58-13.73,29-7.91-1.2-2.27-2.32-4-2.32-4a15.07,15.07,0,0,1,4.45,4.09c-.79-5-2.06-9.69-2.06-9.69,3.15,3.29,4.82,7.81,5.71,11.44,2.9-10.09,16.16-20.24,31.07-4.77,0,0-11.09-5-20.54,1.5,8.92-2.33,20.28,1.39,24,17-5.28-7.64-12.47-12-19.93-11.25,6.91,1.94,13.53,8.87,12.36,23.13-3-14.84-15-21.83-25.1-16.27,18.73,42.22,18.79,96.73,18.79,96.73h-13.09c6.58-39.13-7.42-90.59-8.86-95.69-10.81-1.95-15.89,6.07-13.39,21.65-9-13.68-5.73-22.15,0-25.52-8,1.4-13.78,8.43-16.11,19.1C1307.72,510.11,1311.15,502.24,1316.9,498.46Z"/></g></g></svg>